<?xml version="1.0" encoding="UTF-8" standalone="no"?>
<!-- Created with Inkscape (http://www.inkscape.org/) -->

<svg
   xmlns:dc="http://purl.org/dc/elements/1.1/"
   xmlns:cc="http://creativecommons.org/ns#"
   xmlns:rdf="http://www.w3.org/1999/02/22-rdf-syntax-ns#"
   xmlns:svg="http://www.w3.org/2000/svg"
   xmlns="http://www.w3.org/2000/svg"
   xmlns:xlink="http://www.w3.org/1999/xlink"
   xmlns:sodipodi="http://sodipodi.sourceforge.net/DTD/sodipodi-0.dtd"
   xmlns:inkscape="http://www.inkscape.org/namespaces/inkscape"
   width="103mm"
   height="137mm"
   viewBox="0 0 1080 1440"
   version="1.1"
   id="svg821"
   inkscape:version="0.92.5 (2060ec1f9f, 2020-04-08)"
   sodipodi:docname="AG_hex_vertical.svg"
   inkscape:export-filename="/home/andrea/Cozy Drive/Documenti/mobiscribe/templates/AG_Rows/AG_rows_vertical_5mm.png"
   inkscape:export-xdpi="266.33008"
   inkscape:export-ydpi="266.33008">
  <defs
     id="defs815" />
  <sodipodi:namedview
     id="base"
     pagecolor="#ffffff"
     bordercolor="#666666"
     borderopacity="1.0"
     inkscape:pageopacity="0.0"
     inkscape:pageshadow="2"
     inkscape:zoom="2"
     inkscape:cx="134.57397"
     inkscape:cy="443.45023"
     inkscape:document-units="mm"
     inkscape:current-layer="layer1"
     showgrid="true"
     units="mm"
     inkscape:window-width="1872"
     inkscape:window-height="1016"
     inkscape:window-x="48"
     inkscape:window-y="27"
     inkscape:window-maximized="1"
     fit-margin-top="0"
     fit-margin-left="0"
     fit-margin-right="0"
     fit-margin-bottom="0"
     viewbox-width="285.15"
     viewbox-height="1439.7"
     scale-x="8.0973"
     showguides="true">
    <inkscape:grid
       type="xygrid"
       id="grid1366"
       originx="0"
       originy="0"
       snapvisiblegridlinesonly="true" />
  </sodipodi:namedview>
  <metadata
     id="metadata818">
    <rdf:RDF>
      <cc:Work
         rdf:about="">
        <dc:format>image/svg+xml</dc:format>
        <dc:type
           rdf:resource="http://purl.org/dc/dcmitype/StillImage" />
        <dc:title></dc:title>
      </cc:Work>
    </rdf:RDF>
  </metadata>
  <g
     inkscape:label="Layer 1"
     inkscape:groupmode="layer"
     id="layer1"
     transform="translate(-5.0000005,-1090.002)">
    <path
       style="opacity:1;fill:#b3b3b3;stroke:#b3b3b3;stroke-width:1.87119389;stroke-linecap:butt;stroke-linejoin:miter;stroke-miterlimit:4;stroke-dasharray:none;stroke-opacity:1"
       d="m 3.6861272,1142.5568 c 1082.6276728,0 1082.6276728,0 1082.6276728,0"
       id="path3560"
       inkscape:connector-curvature="0" />
    <use
       x="0"
       y="0"
       xlink:href="#path3560"
       id="use3950"
       transform="translate(0,52.554743)"
       width="100%"
       height="100%" />
    <use
       x="0"
       y="0"
       xlink:href="#path3560"
       id="use3952"
       transform="translate(0,105.10948)"
       width="100%"
       height="100%" />
    <use
       x="0"
       y="0"
       xlink:href="#path3560"
       id="use3954"
       transform="translate(0,157.66423)"
       width="100%"
       height="100%" />
    <use
       x="0"
       y="0"
       xlink:href="#path3560"
       id="use3956"
       transform="translate(0,210.21897)"
       width="100%"
       height="100%" />
    <use
       x="0"
       y="0"
       xlink:href="#path3560"
       id="use3958"
       transform="translate(0,262.77371)"
       width="100%"
       height="100%" />
    <use
       x="0"
       y="0"
       xlink:href="#path3560"
       id="use3960"
       transform="translate(0,315.32846)"
       width="100%"
       height="100%" />
    <use
       x="0"
       y="0"
       xlink:href="#path3560"
       id="use3962"
       transform="translate(0,367.8832)"
       width="100%"
       height="100%" />
    <use
       x="0"
       y="0"
       xlink:href="#path3560"
       id="use3950-3"
       transform="translate(0,420.43794)"
       width="100%"
       height="100%" />
    <use
       x="0"
       y="0"
       xlink:href="#path3560"
       id="use3952-9"
       transform="translate(0,472.99269)"
       width="100%"
       height="100%" />
    <use
       x="0"
       y="0"
       xlink:href="#path3560"
       id="use3954-0"
       transform="translate(0,525.54743)"
       width="100%"
       height="100%" />
    <use
       x="0"
       y="0"
       xlink:href="#path3560"
       id="use3956-8"
       transform="translate(0,578.10217)"
       width="100%"
       height="100%" />
    <use
       x="0"
       y="0"
       xlink:href="#path3560"
       id="use3958-8"
       transform="translate(0,630.65692)"
       width="100%"
       height="100%" />
    <use
       x="0"
       y="0"
       xlink:href="#path3560"
       id="use3960-5"
       transform="translate(0,683.21166)"
       width="100%"
       height="100%" />
    <use
       x="0"
       y="0"
       xlink:href="#path3560"
       id="use3962-0"
       transform="translate(0,735.7664)"
       width="100%"
       height="100%" />
    <use
       x="0"
       y="0"
       xlink:href="#path3560"
       id="use3958-8-9"
       transform="translate(0,788.32115)"
       width="100%"
       height="100%" />
    <use
       x="0"
       y="0"
       xlink:href="#path3560"
       id="use3960-5-6"
       transform="translate(0,840.87589)"
       width="100%"
       height="100%" />
    <use
       x="0"
       y="0"
       xlink:href="#path3560"
       id="use3962-0-3"
       transform="translate(0,893.43063)"
       width="100%"
       height="100%" />
    <use
       x="0"
       y="0"
       xlink:href="#path3560"
       id="use3960-5-6-1"
       transform="translate(0,945.98538)"
       width="100%"
       height="100%" />
    <use
       x="0"
       y="0"
       xlink:href="#path3560"
       id="use3962-0-3-5"
       transform="translate(0,998.54012)"
       width="100%"
       height="100%" />
    <use
       x="0"
       y="0"
       xlink:href="#path3560"
       id="use3958-8-9-9"
       transform="translate(4.9799204e-7,1051.2379)"
       width="100%"
       height="100%" />
    <use
       x="0"
       y="0"
       xlink:href="#path3560"
       id="use3960-5-6-8"
       transform="translate(4.9799204e-7,1103.7927)"
       width="100%"
       height="100%" />
    <use
       x="0"
       y="0"
       xlink:href="#path3560"
       id="use3962-0-3-4"
       transform="translate(4.9799204e-7,1156.3474)"
       width="100%"
       height="100%" />
    <use
       x="0"
       y="0"
       xlink:href="#path3560"
       id="use3960-5-6-1-8"
       transform="translate(4.9799204e-7,1208.9022)"
       width="100%"
       height="100%" />
    <use
       x="0"
       y="0"
       xlink:href="#path3560"
       id="use3962-0-3-5-1"
       transform="translate(4.9799204e-7,1261.4569)"
       width="100%"
       height="100%" />
    <use
       x="0"
       y="0"
       xlink:href="#path3560"
       id="use3960-5-6-1-8-0"
       transform="translate(-1.0310362e-5,1314.0117)"
       width="100%"
       height="100%" />
    <use
       x="0"
       y="0"
       xlink:href="#path3560"
       id="use3962-0-3-5-1-4"
       transform="translate(-1.0310362e-5,1366.5664)"
       width="100%"
       height="100%" />
    <path
       inkscape:connector-curvature="0"
       id="use3950-4"
       d="m 56.2408,2530.002 c 0,-1439.9999 0,-1439.9999 0,-1439.9999"
       style="opacity:1;fill:#b3b3b3;stroke:#b3b3b3;stroke-width:2.15804482;stroke-linecap:butt;stroke-linejoin:miter;stroke-miterlimit:4;stroke-dasharray:none;stroke-opacity:1" />
    <use
       x="0"
       y="0"
       xlink:href="#use3950-4"
       id="use4191"
       transform="translate(52.554936)"
       width="100%"
       height="100%" />
    <use
       x="0"
       y="0"
       xlink:href="#use3950-4"
       id="use4195"
       transform="translate(105.13748)"
       width="100%"
       height="100%" />
    <use
       x="0"
       y="0"
       xlink:href="#use3950-4"
       id="use4197" />
    <path
       style="fill:none;stroke:#666666;stroke-width:4.20437945;stroke-linecap:butt;stroke-linejoin:miter;stroke-opacity:1;stroke-miterlimit:4;stroke-dasharray:none"
       d="m 213.9051,1090.002 v 1440"
       id="path4214"
       inkscape:connector-curvature="0" />
    <path
       inkscape:connector-curvature="0"
       id="use3950-4-4"
       d="m 266.48778,2530.002 c 0,-1439.9999 0,-1439.9999 0,-1439.9999"
       style="opacity:1;fill:#b3b3b3;stroke:#b3b3b3;stroke-width:2.15804482;stroke-linecap:butt;stroke-linejoin:miter;stroke-miterlimit:4;stroke-dasharray:none;stroke-opacity:1" />
    <use
       x="0"
       y="0"
       xlink:href="#use3950-4-4"
       id="use4191-7"
       transform="translate(52.554936,-4.7499428e-6)"
       width="100%"
       height="100%" />
    <use
       x="0"
       y="0"
       xlink:href="#use3950-4-4"
       id="use4195-6"
       transform="translate(105.13748,-4.7499428e-6)"
       width="100%"
       height="100%" />
    <use
       height="100%"
       width="100%"
       x="0"
       y="0"
       xlink:href="#use3950-4-4"
       id="use4197-3"
       transform="translate(-4.9690191e-6,-4.7499428e-6)" />
    <path
       style="fill:none;stroke:#666666;stroke-width:4.20437956;stroke-linecap:butt;stroke-linejoin:miter;stroke-miterlimit:4;stroke-dasharray:none;stroke-opacity:1"
       d="m 424.15209,1090.002 v 1440"
       id="path4214-1"
       inkscape:connector-curvature="0" />
    <path
       inkscape:connector-curvature="0"
       id="use3950-4-7"
       d="m 476.70675,2530.002 c 0,-1440 0,-1440 0,-1440"
       style="opacity:1;fill:#b3b3b3;stroke:#b3b3b3;stroke-width:2.15804482;stroke-linecap:butt;stroke-linejoin:miter;stroke-miterlimit:4;stroke-dasharray:none;stroke-opacity:1" />
    <use
       x="0"
       y="0"
       xlink:href="#use3950-4-7"
       id="use4191-5"
       transform="translate(52.554938,2.8869557e-6)"
       width="100%"
       height="100%" />
    <use
       x="0"
       y="0"
       xlink:href="#use3950-4-7"
       id="use4195-9"
       transform="translate(105.13748,2.8869557e-6)"
       width="100%"
       height="100%" />
    <use
       height="100%"
       width="100%"
       x="0"
       y="0"
       xlink:href="#use3950-4-7"
       id="use4197-6"
       transform="translate(-1.7626089e-6,2.8869557e-6)" />
    <path
       style="fill:none;stroke:#666666;stroke-width:4.20437956;stroke-linecap:butt;stroke-linejoin:miter;stroke-miterlimit:4;stroke-dasharray:none;stroke-opacity:1"
       d="M 634.37105,1090.0019 V 2530.002"
       id="path4214-2"
       inkscape:connector-curvature="0" />
    <path
       inkscape:connector-curvature="0"
       id="use3950-4-1"
       d="m 686.92572,2530.002 c 0,-1439.9999 0,-1439.9999 0,-1439.9999"
       style="opacity:1;fill:#b3b3b3;stroke:#b3b3b3;stroke-width:2.15804482;stroke-linecap:butt;stroke-linejoin:miter;stroke-miterlimit:4;stroke-dasharray:none;stroke-opacity:1" />
    <use
       x="0"
       y="0"
       xlink:href="#use3950-4-1"
       id="use4191-78"
       transform="translate(52.554935,-4.7499418e-6)"
       width="100%"
       height="100%" />
    <use
       x="0"
       y="0"
       xlink:href="#use3950-4-1"
       id="use4195-5"
       transform="translate(105.13748,-4.7499418e-6)"
       width="100%"
       height="100%" />
    <use
       height="100%"
       width="100%"
       x="0"
       y="0"
       xlink:href="#use3950-4-1"
       id="use4197-7"
       transform="translate(4.5279945e-6,-4.7499418e-6)" />
    <path
       style="fill:none;stroke:#666666;stroke-width:4.20437956;stroke-linecap:butt;stroke-linejoin:miter;stroke-miterlimit:4;stroke-dasharray:none;stroke-opacity:1"
       d="m 844.59002,1090.002 v 1440"
       id="path4214-4"
       inkscape:connector-curvature="0" />
    <path
       inkscape:connector-curvature="0"
       id="use3950-4-18"
       d="m 897.14469,2530.002 c 0,-1439.9979 0,-1439.9979 0,-1439.9979"
       style="opacity:1;fill:#b3b3b3;stroke:#b3b3b3;stroke-width:2.15804482;stroke-linecap:butt;stroke-linejoin:miter;stroke-miterlimit:4;stroke-dasharray:none;stroke-opacity:1" />
    <use
       x="0"
       y="0"
       xlink:href="#use3950-4-18"
       id="use4191-59"
       transform="translate(52.554938,2.8886606e-6)"
       width="100%"
       height="100%" />
    <use
       x="0"
       y="0"
       xlink:href="#use3950-4-18"
       id="use4195-7"
       transform="translate(105.13748,2.8886606e-6)"
       width="100%"
       height="100%" />
    <use
       height="100%"
       width="100%"
       x="0"
       y="0"
       xlink:href="#use3950-4-18"
       id="use4197-5"
       transform="translate(-2.1041976e-6,2.8886606e-6)" />
    <path
       style="fill:none;stroke:#666666;stroke-width:4.20437956;stroke-linecap:butt;stroke-linejoin:miter;stroke-miterlimit:4;stroke-dasharray:none;stroke-opacity:1"
       d="M 1054.8086,1090.004 V 2530.002"
       id="path4214-3"
       inkscape:connector-curvature="0" />
  </g>
</svg>
